<?xml version="1.0" standalone="no"?><!DOCTYPE svg PUBLIC "-//W3C//DTD SVG 1.1//EN" "http://www.w3.org/Graphics/SVG/1.1/DTD/svg11.dtd"><svg t="1640101798476" class="icon" viewBox="0 0 1024 1024" version="1.1" xmlns="http://www.w3.org/2000/svg" p-id="4872" xmlns:xlink="http://www.w3.org/1999/xlink" width="200" height="200"><defs><style type="text/css"></style></defs><path d="M512 56.32c-251.904 0-455.68 203.776-455.68 455.68s203.776 455.68 455.68 455.68 455.68-203.776 455.68-455.68-203.776-455.68-455.68-455.68zM356.352 373.76c0-86.016 69.632-155.648 155.648-155.136 86.016 0 155.648 69.632 155.136 155.648 0 86.016-69.632 155.648-155.648 155.136-85.504-0.512-155.136-70.144-155.136-155.648z m283.136 427.008H384.512c-51.2 0-92.672-50.688-92.672-113.152 0-62.464 41.472-113.152 92.672-113.152H640c51.2 0 92.672 50.688 92.672 113.152-0.512 62.464-41.984 113.152-93.184 113.152z" p-id="4873"></path></svg>