<?xml version="1.0" standalone="no"?><!DOCTYPE svg PUBLIC "-//W3C//DTD SVG 1.1//EN" "http://www.w3.org/Graphics/SVG/1.1/DTD/svg11.dtd"><svg t="1639987856552" class="icon" viewBox="0 0 1024 1024" version="1.1" xmlns="http://www.w3.org/2000/svg" p-id="6685" xmlns:xlink="http://www.w3.org/1999/xlink" width="200" height="200"><defs><style type="text/css"></style></defs><path d="M479.04 1015.616c-32.128-2.368-60.16-6.848-89.6-14.336-44.864-11.392-84.352-27.008-121.6-48.064-5.952-3.392-12.736-7.168-15.04-8.384-9.6-5.312-33.6-21.632-46.72-31.872-2.304-1.728-6.016-4.672-8.256-6.4-6.016-4.608-16.128-13.184-23.104-19.456-9.28-8.384-33.408-32.704-41.152-41.536-18.56-21.12-43.712-55.488-53.44-72.768-1.792-3.136-6.016-10.624-9.344-16.64-14.464-25.6-24.832-48.448-33.664-74.24-16-46.592-23.616-81.088-27.968-126.72-0.96-9.856-1.152-18.048-1.152-43.52 0-32.064 0.448-39.68 3.264-62.08 6.848-54.912 24.512-113.472 48.896-162.24 2.688-5.44 5.184-9.92 12.864-23.36 2.176-3.84 5.376-9.536 7.04-12.608 9.216-16.768 34.56-51.328 53.696-73.152 8.64-9.92 34.56-35.84 44.48-44.48 22.976-20.16 55.168-43.584 75.52-55.04 4.608-2.624 12.096-6.784 16.64-9.408 23.04-12.992 46.848-23.744 71.68-32.192 47.04-16.128 80-23.424 126.72-27.968 9.28-0.896 17.728-1.152 43.52-1.088 28.288 0 33.664 0.128 46.08 1.408 27.648 2.752 51.008 6.848 76.16 13.248 42.88 10.944 82.048 26.112 115.072 44.48 6.784 3.776 16.064 8.96 20.608 11.52 14.336 8 37.888 24.448 58.24 40.64 26.304 20.864 55.744 50.432 77.248 77.504 13.696 17.216 33.92 46.016 37.952 54.016 0.96 1.92 3.84 7.104 6.4 11.52 16.448 28.608 27.264 51.904 36.48 78.784 16.448 47.744 23.68 80.576 28.288 127.616 1.664 16.896 1.664 69.12 0 86.4-4.16 43.328-11.904 79.872-25.472 119.36-8.832 25.856-12.288 34.368-22.784 56.32-4.48 9.408-6.976 14.016-15.808 29.44-2.112 3.712-5.248 9.28-6.976 12.48-9.088 16.576-34.304 50.944-53.504 72.96-8.896 10.112-34.688 35.904-45.184 45.056-21.12 18.496-58.432 45.696-73.92 53.952-2.304 1.216-7.296 4.032-11.2 6.272-14.528 8.192-18.048 10.176-23.36 12.8-30.848 15.424-65.792 28.224-102.08 37.44-25.408 6.464-48.448 10.496-75.584 13.184-10.944 1.088-18.752 1.344-42.816 1.536-16.192 0.128-32.896-0.064-37.12-0.384z m57.92-47.296c36.096-2.176 70.528-8.192 104.064-18.24 6.656-1.984 14.528-4.352 17.536-5.248 17.344-4.992 52.48-20.928 78.656-35.648 2.688-1.472 5.376-2.88 5.952-3.136 3.072-1.088 28.992-18.496 39.872-26.752 25.344-19.2 29.824-23.104 48.896-41.856 17.856-17.6 24.704-25.216 39.872-44.48 11.776-14.976 32.448-45.056 34.368-50.112 0.32-0.768 1.664-3.264 2.944-5.568 5.312-9.216 16.576-31.296 20.416-39.872 5.632-12.608 13.44-32.384 15.296-38.848 0.896-3.008 3.2-10.752 5.12-17.28 13.696-45.696 19.84-90.816 18.816-138.24-0.896-42.432-6.72-79.744-18.688-120-1.984-6.656-4.352-14.592-5.184-17.6-1.92-6.464-9.408-25.408-15.168-38.4-3.904-8.704-15.296-31.104-20.608-40.32-1.28-2.304-2.624-4.8-2.944-5.568-1.344-3.456-18.496-29.056-26.88-40.192-12.032-15.872-14.208-18.624-20.928-26.56-8.704-10.304-38.464-40.064-48.768-48.768-7.936-6.72-10.688-8.896-26.56-20.928-10.816-8.192-36.8-25.664-39.872-26.752-0.576-0.192-3.264-1.664-5.952-3.136-26.176-14.72-61.248-30.592-78.656-35.712-3.008-0.832-10.88-3.2-17.6-5.184-78.08-23.168-160.192-25.024-238.72-5.376-7.616 1.92-32 8.96-40 11.584-18.752 6.08-52.8 21.76-75.968 35.008-2.56 1.408-4.928 2.624-5.248 2.624s-2.24 1.088-4.288 2.432c-27.136 17.792-33.856 22.528-43.776 30.528-2.624 2.176-6.656 5.312-8.96 7.04-17.536 13.12-53.376 49.088-67.456 67.776-2.368 3.2-5.568 7.296-7.104 9.024-3.84 4.608-14.976 20.288-21.248 30.016-3.008 4.608-6.464 9.856-7.616 11.648-1.216 1.856-2.432 4.032-2.752 4.8-0.32 0.832-1.664 3.392-2.944 5.696-5.056 8.832-16.96 32.064-20.48 40-6.528 14.784-13.632 33.088-16.192 41.92-1.408 4.736-3.84 13.12-5.504 18.56-8.192 27.968-13.504 57.088-16.512 90.88-1.216 14.208-1.024 56.896 0.32 71.68 3.136 33.024 8.64 61.952 17.472 91.456 1.984 6.528 4.288 14.336 5.184 17.344 1.856 6.4 9.28 25.28 15.104 38.464 3.904 8.768 16.448 33.344 20.864 40.768 1.088 1.92 2.368 4.352 2.88 5.504 1.984 4.672 24.704 38.016 31.616 46.272 1.344 1.728 4.48 5.696 6.912 8.896 7.68 10.176 19.456 23.104 34.944 38.4 15.552 15.36 24.384 23.296 34.112 30.656 3.2 2.368 7.232 5.568 8.96 7.04 7.424 6.272 44.8 31.68 46.528 31.68 0.256 0 4.032 1.984 8.384 4.352 21.312 11.904 35.84 18.816 57.408 27.456 12.928 5.184 14.656 5.76 33.6 11.328 30.976 9.152 58.688 14.592 89.28 17.664 18.496 1.856 48.32 2.432 67.2 1.28z" p-id="6686" fill="#1296db"></path><path d="M509.376 870.208c-7.488-12.864-25.536-43.712-30.016-51.328-2.944-4.928-5.696-9.856-6.144-10.88-0.832-2.048-10.432-18.752-13.184-23.04-2.304-3.584-22.464-38.4-26.432-45.76-3.328-6.016-9.024-15.872-25.28-43.52-4.672-7.936-10.112-17.408-12.096-21.12-3.264-6.016-12.16-21.248-32.64-56.256-3.584-6.08-7.488-12.992-8.64-15.36-1.152-2.304-4.672-8.512-7.872-13.824-3.136-5.248-9.152-15.488-13.312-22.72s-9.024-15.552-10.88-18.56c-1.792-3.008-4.928-8.448-6.848-12.16-1.984-3.712-5.952-10.752-8.832-15.68-4.992-8.448-18.368-31.488-40.704-70.272-5.376-9.216-13.12-22.528-17.216-29.568-4.16-7.04-9.28-16.064-11.456-19.968-2.176-3.968-9.344-16.512-16-27.84-21.056-35.968-22.656-38.784-24.896-43.2-1.216-2.432-4.352-8-7.104-12.48-2.688-4.416-4.864-8.256-4.864-8.448 0-0.96 1.92-0.064 8.512 3.84 31.936 18.816 41.216 24.384 55.616 32.96 9.024 5.44 26.752 16 39.36 23.488s26.688 15.936 31.232 18.752c4.608 2.816 10.24 6.144 12.544 7.296 2.304 1.216 7.68 4.224 11.84 6.784 24.512 14.976 50.432 30.528 54.336 32.576 2.496 1.344 11.392 6.592 19.84 11.648 21.888 13.184 42.048 25.216 68.16 40.704 12.48 7.36 24.32 14.464 26.24 15.744s3.968 2.24 4.544 2.112c1.088-0.32 23.424-13.888 38.016-23.168 4.608-2.944 10.176-6.272 12.48-7.552 2.304-1.216 8.768-5.12 14.4-8.64 12.096-7.552 42.752-26.432 65.6-40.32 8.96-5.504 20.224-12.416 24.96-15.488s12.224-7.616 16.64-10.24c10.176-5.952 15.104-8.96 40.768-24.896 11.52-7.168 23.232-14.4 25.92-16 5.056-3.008 19.264-11.712 51.072-31.296 9.664-5.952 18.048-11.008 18.56-11.2s3.392-1.92 6.4-3.904c7.552-4.928 8.512-4.864 4.992 0.64-3.456 5.44-5.632 9.28-10.56 18.432-2.624 4.864-7.872 14.08-11.648 20.48-3.84 6.336-10.752 18.24-15.424 26.304-4.672 8.128-8.832 15.168-9.28 15.68s-1.856 3.072-3.136 5.696c-2.304 4.672-14.336 25.664-18.88 33.024-2.432 3.904-14.784 25.216-25.664 44.48-3.328 5.824-9.344 16.192-13.376 23.04-15.68 26.752-20.032 34.304-20.8 36.16-0.448 1.088-3.584 6.528-6.912 12.16s-9.472 16.128-13.632 23.36-8.96 15.36-10.688 18.048c-1.664 2.752-5.184 8.96-7.808 13.76-2.56 4.864-7.104 12.864-9.984 17.792-9.92 16.768-27.712 47.36-29.952 51.52-3.072 5.696-16.256 28.544-20.288 35.2-4.224 6.848-14.592 24.768-18.688 32.32-4.224 7.744-24 41.92-27.072 46.72-3.52 5.568-12.16 20.672-12.16 21.248 0 0.32-2.624 4.992-5.824 10.432-5.44 9.28-25.408 43.456-30.592 52.288-1.28 2.176-2.432 3.968-2.624 3.968s-1.344-1.792-2.624-3.968z" p-id="6687" fill="#1296db"></path></svg>