<?xml version="1.0" standalone="no"?><!DOCTYPE svg PUBLIC "-//W3C//DTD SVG 1.1//EN" "http://www.w3.org/Graphics/SVG/1.1/DTD/svg11.dtd"><svg t="1645510597228" class="icon" viewBox="0 0 1024 1024" version="1.1" xmlns="http://www.w3.org/2000/svg" p-id="2034" xmlns:xlink="http://www.w3.org/1999/xlink" width="200" height="200"><defs><style type="text/css"></style></defs><path d="M821.191111 577.137778L513.422222 256a11.662222 11.662222 0 0 0-16.782222 0L186.595556 576.853333v1.706667a10.808889 10.808889 0 0 0-2.56 6.826667v342.755555a10.808889 10.808889 0 0 0 9.386666 10.524445h216.746667a9.386667 9.386667 0 0 0 9.386667-9.386667v-201.386667a10.808889 10.808889 0 0 1 10.524444-10.808889h157.866667a10.808889 10.808889 0 0 1 10.524444 10.808889v201.955556a9.102222 9.102222 0 0 0 9.102222 9.102222h206.506667a10.808889 10.808889 0 0 0 10.524444-10.808889V585.386667a10.808889 10.808889 0 0 0-3.697777-8.248889z m0 0" fill="#666666" p-id="2035"></path><path d="M868.408889 529.635556a41.528889 41.528889 0 0 1-28.444445-12.231112L502.044444 177.493333 174.08 508.302222a41.528889 41.528889 0 0 1-58.88 0 42.382222 42.382222 0 0 1 0-59.448889L472.746667 88.177778a41.528889 41.528889 0 0 1 58.88 0l366.364444 369.777778a42.382222 42.382222 0 0 1 0 59.448888 41.244444 41.244444 0 0 1-28.444444 12.231112z m0 0" fill="#666666" p-id="2036"></path></svg>