<?xml version="1.0" standalone="no"?><!DOCTYPE svg PUBLIC "-//W3C//DTD SVG 1.1//EN" "http://www.w3.org/Graphics/SVG/1.1/DTD/svg11.dtd"><svg t="1640239043480" class="icon" viewBox="0 0 1024 1024" version="1.1" xmlns="http://www.w3.org/2000/svg" p-id="5274" xmlns:xlink="http://www.w3.org/1999/xlink" width="200" height="200"><defs><style type="text/css"></style></defs><path d="M947.2 476.64a57.6 57.6 0 0 1 0 72.48L699.04 817.6a46.08 46.08 0 0 1-64 2.72l-2.88-2.72a57.44 57.44 0 0 1 0-71.84l170.24-183.84H112a49.92 49.92 0 0 1 0-99.84h688l-169.76-184a57.28 57.28 0 0 1 0-71.68 45.6 45.6 0 0 1 64-3.04 27.2 27.2 0 0 1 3.04 3.04l248 268.48z" fill="#30343F" p-id="5275"></path></svg>