<?xml version="1.0" standalone="no"?><!DOCTYPE svg PUBLIC "-//W3C//DTD SVG 1.1//EN" "http://www.w3.org/Graphics/SVG/1.1/DTD/svg11.dtd"><svg t="1640075076354" class="icon" viewBox="0 0 1024 1024" version="1.1" xmlns="http://www.w3.org/2000/svg" p-id="9919" xmlns:xlink="http://www.w3.org/1999/xlink" width="200" height="200"><defs><style type="text/css"></style></defs><path d="M697.506909 945.943273H326.493091a117.829818 117.829818 0 0 1-101.818182-58.600728L38.912 566.481455a117.597091 117.597091 0 0 1 0-117.201455L224.674909 128.418909A117.829818 117.829818 0 0 1 326.493091 69.818182h371.013818a117.829818 117.829818 0 0 1 101.818182 58.600727l185.762909 321.349818a117.597091 117.597091 0 0 1 0 117.224728l-185.762909 321.349818a118.434909 118.434909 0 0 1-101.818182 57.6z m-371.013818-777.309091a18.338909 18.338909 0 0 0-15.895273 8.936727L124.834909 498.432a19.013818 19.013818 0 0 0 0 17.873455l185.762909 320.86109a18.362182 18.362182 0 0 0 15.895273 8.936728h371.013818a18.362182 18.362182 0 0 0 15.895273-8.936728l185.762909-320.86109a18.990545 18.990545 0 0 0 0-17.873455L713.309091 177.594182a18.338909 18.338909 0 0 0-15.895273-8.936727z" fill="#333333" p-id="9920"></path><path d="M512.232727 668.322909a160.581818 160.581818 0 0 1-160.418909-160.418909 160.581818 160.581818 0 0 1 160.418909-160.418909 160.581818 160.581818 0 0 1 160.418909 160.418909 160.581818 160.581818 0 0 1-160.418909 160.418909z m0-236.427636a76.311273 76.311273 0 0 0-75.985454 75.985454 76.311273 76.311273 0 0 0 75.985454 75.985455 76.311273 76.311273 0 0 0 75.985455-75.985455 76.311273 76.311273 0 0 0-75.985455-75.985454z" fill="#AC0404" p-id="9921"></path></svg>